<svg xmlns="http://www.w3.org/2000/svg" xmlns:xlink="http://www.w3.org/1999/xlink" preserveAspectRatio="xMidYMid" width="22" height="22" viewBox="0 0 22 22">
  <path d="M20.904,13.645 C20.227,14.321 19.291,14.740 18.259,14.740 C17.226,14.740 16.291,14.321 15.614,13.645 C14.937,12.968 14.518,12.032 14.518,11.000 C14.518,9.967 14.937,9.032 15.614,8.355 C16.291,7.678 17.226,7.259 18.259,7.259 C19.291,7.259 20.227,7.678 20.904,8.355 C21.581,9.032 21.999,9.967 21.999,11.000 C21.999,12.032 21.581,12.968 20.904,13.645 ZM19.431,9.827 C19.131,9.527 18.717,9.341 18.259,9.341 C17.801,9.341 17.386,9.527 17.086,9.827 C16.786,10.127 16.600,10.542 16.600,11.000 C16.600,11.458 16.786,11.872 17.086,12.172 C17.386,12.472 17.801,12.658 18.259,12.658 C18.717,12.658 19.132,12.472 19.431,12.172 C19.731,11.872 19.917,11.458 19.917,11.000 C19.917,10.542 19.731,10.127 19.431,9.827 ZM11.000,7.481 C9.967,7.481 9.032,7.063 8.355,6.386 C7.678,5.709 7.259,4.774 7.259,3.741 C7.259,2.708 7.678,1.773 8.355,1.096 C9.032,0.419 9.967,0.000 11.000,0.000 C12.033,0.000 12.968,0.419 13.645,1.096 C14.322,1.773 14.741,2.708 14.741,3.741 C14.741,4.774 14.322,5.709 13.645,6.386 C12.968,7.063 12.033,7.481 11.000,7.481 ZM12.173,2.568 C11.873,2.268 11.458,2.083 11.000,2.083 C10.542,2.083 10.127,2.268 9.827,2.568 C9.527,2.868 9.342,3.283 9.342,3.741 C9.342,4.199 9.527,4.614 9.827,4.914 C10.127,5.214 10.542,5.399 11.000,5.399 C11.458,5.399 11.873,5.214 12.173,4.914 C12.473,4.614 12.658,4.199 12.658,3.741 C12.658,3.283 12.473,2.868 12.173,2.568 ZM6.386,13.645 C5.709,14.321 4.774,14.740 3.741,14.740 C2.709,14.740 1.773,14.321 1.096,13.645 C0.419,12.968 0.001,12.032 0.001,11.000 C0.001,9.967 0.419,9.032 1.096,8.355 C1.773,7.678 2.708,7.259 3.741,7.259 C4.774,7.259 5.709,7.678 6.386,8.355 C7.063,9.032 7.482,9.967 7.482,11.000 C7.482,12.032 7.063,12.968 6.386,13.645 ZM4.914,9.827 C4.614,9.527 4.199,9.341 3.741,9.341 C3.283,9.341 2.868,9.527 2.568,9.827 C2.268,10.127 2.083,10.542 2.083,11.000 C2.083,11.458 2.268,11.872 2.568,12.172 C2.868,12.472 3.283,12.658 3.741,12.658 C4.199,12.658 4.614,12.472 4.914,12.172 C5.214,11.872 5.400,11.458 5.400,11.000 C5.400,10.542 5.214,10.127 4.914,9.827 ZM8.686,11.000 C8.686,9.722 9.722,8.686 11.000,8.686 C12.278,8.686 13.314,9.722 13.314,11.000 C13.314,12.278 12.278,13.314 11.000,13.314 C9.722,13.314 8.686,12.278 8.686,11.000 ZM11.000,14.518 C12.033,14.518 12.968,14.936 13.645,15.614 C14.322,16.290 14.741,17.226 14.741,18.258 C14.741,19.291 14.322,20.226 13.645,20.903 C12.968,21.580 12.033,21.999 11.000,21.999 C9.967,21.999 9.032,21.580 8.355,20.903 C7.678,20.226 7.259,19.291 7.259,18.258 C7.259,17.226 7.678,16.290 8.355,15.614 C9.032,14.936 9.967,14.518 11.000,14.518 ZM9.827,19.431 C10.127,19.731 10.542,19.917 11.000,19.917 C11.458,19.917 11.873,19.731 12.173,19.431 C12.473,19.131 12.658,18.717 12.658,18.258 C12.658,17.800 12.473,17.386 12.173,17.086 C11.873,16.786 11.458,16.600 11.000,16.600 C10.542,16.600 10.127,16.786 9.827,17.086 C9.527,17.386 9.342,17.800 9.342,18.258 C9.342,18.717 9.527,19.131 9.827,19.431 Z"/>
</svg>
