<?xml version="1.0" encoding="utf-8"?>
<!-- Generator: Adobe Illustrator 23.0.4, SVG Export Plug-In . SVG Version: 6.00 Build 0)  -->
<svg version="1.1" id="Capa_1" xmlns="http://www.w3.org/2000/svg" xmlns:xlink="http://www.w3.org/1999/xlink" x="0px" y="0px"
	 viewBox="0 0 482.9 482.9" style="enable-background:new 0 0 482.9 482.9;" xml:space="preserve">
<style type="text/css">
	.st0{fill:#FFFFFF;stroke:#000000;stroke-miterlimit:10;}
	.st1{opacity:0.86;}
	.st2{fill:#FFFFFF;}
	.st3{opacity:0.73;}
	.st4{fill:#777777;}
</style>
<circle class="st0" cx="239.6" cy="240.8" r="217"/>
<g>
	<path d="M466.2,240.7c0-60.5-23.6-117.4-66.4-160.2c-42.7-42.8-99.6-66.3-160.2-66.3S122.2,37.7,79.4,80.5S13,180.2,13,240.7
		s23.6,117.4,66.4,160.2c2.9,2.9,5.8,5.6,8.8,8.3c-0.8-8.1-0.7-16-0.7-18.2c0-0.1,0-0.1,0-0.2c0.1-0.6,0.1-1.2,0.1-1.9
		c0.1-2.6,0.2-5.9,0.5-9.5C54.5,342.9,34,294.2,34,240.7c0-113.4,92.2-205.6,205.6-205.6s205.6,92.2,205.6,205.6
		c0,53.4-20.5,102.1-54,138.7c0.3,3.7,0.4,6.9,0.5,9.6c0,0.7,0.1,1.3,0.1,1.9c0,0.1,0,0.1,0,0.2c0,2.3,0.1,10.1-0.6,18.1
		c3-2.7,5.9-5.4,8.7-8.3C442.7,358.2,466.2,301.3,466.2,240.7z"/>
	<path d="M109,414.3c9.5,5.3,40.6,21,87.8,27.5c-33.5-7.1-64-22.5-89.3-43.8C107.6,403.8,108.1,410.1,109,414.3z"/>
	<path d="M179.4,459.3c19.4,5.3,39.6,8.1,60.3,8.1c20.5,0,40.6-2.7,59.9-8c-17.5,3.2-37.5,5.3-59.7,5.3
		C217.3,464.7,197.1,462.5,179.4,459.3z"/>
	<path d="M370.3,414.4c0.8-4.2,1.3-10.5,1.5-16.3c-25.4,21.4-56,36.7-89.7,43.8C329.8,435.5,360.9,419.7,370.3,414.4z"/>
	<path d="M238.3,299.7c0.4,0,0.7,0,1.2,0c0.1,0,0.3,0,0.4,0c0.2,0,0.5,0,0.7,0c21.7-0.4,39.3-8,52.2-22.6
		c28.5-32.2,23.8-87.3,23.3-92.6c-1.9-39.5-20.5-58.4-35.9-67.2c-11.5-6.6-24.9-10.2-39.9-10.4h-0.5c-0.1,0-0.2,0-0.3,0h-0.4
		c-8.2,0-24.4,1.3-39.9,10.2c-15.6,8.8-34.5,27.7-36.4,67.5c-0.5,5.3-5.3,60.4,23.3,92.6C199.1,291.7,216.6,299.3,238.3,299.7z
		 M182.7,186.4c0-0.2,0.1-0.4,0.1-0.6c2.4-53.1,40.2-58.8,56.3-58.8h0.3c0.1,0,0.4,0,0.6,0c20,0.4,54,8.6,56.3,58.8
		c0,0.2,0,0.4,0.1,0.6c0.1,0.5,5.3,50.9-18.3,77.4c-9.3,10.5-21.8,15.7-38.2,15.9c-0.1,0-0.2,0-0.4,0s-0.2,0-0.4,0
		c-16.3-0.1-28.8-5.3-38.1-15.9C177.6,237.4,182.6,186.8,182.7,186.4z"/>
	<path d="M107.4,400.1c-0.1-2.4-0.1-6.7,0-8.7c0-0.6,0.1-1.2,0.1-1.9c0.5-16.9,2.4-35.3,19.7-41.5c36.9-9.5,66.4-30.1,67.7-30.9
		c4.5-3.2,5.6-9.4,2.4-13.9c-3.2-4.5-9.4-5.6-13.9-2.4c-0.3,0.2-27.9,19.5-61.5,28c-0.3,0.1-0.5,0.1-0.7,0.2
		c-26.4,9.1-31.8,35.8-33.1,52.4C94.1,388.1,100.6,394.3,107.4,400.1z"/>
	<path d="M358.2,329.1c-0.2-0.1-0.5-0.1-0.7-0.2c-33.4-8.5-61.2-27.8-61.5-28c-4.5-3.2-10.7-2.1-13.9,2.4
		c-3.2,4.5-2.1,10.7,2.4,13.9c1.3,0.9,30.8,21.4,67.7,30.9c17.3,6.2,19.2,24.6,19.7,41.5c0,0.7,0,1.3,0.1,1.9c0,2,0,4.2-0.1,6.6
		c6.9-5.8,13.4-12,19.5-18.7C389.9,362.8,384.5,338.1,358.2,329.1z"/>
</g>
<g>
	<path d="M239.5,467.4c-60.5,0-117.4-23.6-160.2-66.4s-66.4-99.6-66.4-160.2c0-60.5,23.6-117.4,66.4-160.2S179,14.2,239.5,14.2
		S357,37.8,399.8,80.6s66.4,99.7,66.4,160.2S442.6,358.2,399.8,401C357,443.9,300.1,467.4,239.5,467.4z M239.5,35.3
		c-113.3,0-205.6,92.2-205.6,205.5s92.2,205.6,205.6,205.6s205.6-92.2,205.6-205.6S352.9,35.3,239.5,35.3z"/>
</g>
<g class="st1">
	<path class="st2" d="M239.2,468c90.8,0,169.2-53.3,205.5-130.3h-411C70,414.6,148.4,468,239.2,468z"/>
</g>
<g class="st3">
	<path class="st4" d="M239.2,468c90.8,0,169.2-53.3,205.5-130.3h-411C70,414.6,148.4,468,239.2,468z"/>
</g>
<g>
	<path class="st2" d="M275.3,433.9h-72.2c-6,0-10.9-4.8-10.9-10.8v-44c0-6,4.9-10.9,10.9-10.9h14.7l1.3-4.4c0.5-2.4,2.7-4.1,5.3-4.1
		H254c2.5,0,4.7,1.7,5.3,4.1v0.1l1.2,4.2h14.8c6,0,10.9,4.9,10.9,10.9v44C286.2,429.1,281.3,433.9,275.3,433.9z M203.1,371.8
		c-4,0-7.2,3.2-7.2,7.2v44c0,4,3.2,7.2,7.2,7.2h72.2c4,0,7.2-3.2,7.2-7.2v-44c0-4-3.2-7.2-7.2-7.2h-17.5l-2-7.1
		c-0.2-0.8-0.9-1.4-1.8-1.4h-29.6c-0.8,0-1.6,0.6-1.8,1.4l-2.1,7.1H203.1z M239.2,423c-12.7,0-23-10.3-23-23s10.3-23,23-23
		s23,10.3,23,23S251.9,423,239.2,423z M239.2,380.7c-10.7,0-19.3,8.7-19.3,19.3c0,10.7,8.7,19.3,19.3,19.3
		c10.7,0,19.3-8.7,19.3-19.3C258.5,389.4,249.9,380.7,239.2,380.7z M273,378.6c-1.9,0-3.3,1.5-3.3,3.3s1.5,3.3,3.3,3.3
		s3.3-1.5,3.3-3.3S274.8,378.6,273,378.6z"/>
</g>
</svg>
